<?xml version="1.0" standalone="no"?>
<!DOCTYPE svg PUBLIC "-//W3C//DTD SVG 20010904//EN"
 "http://www.w3.org/TR/2001/REC-SVG-20010904/DTD/svg10.dtd">
<svg version="1.0" xmlns="http://www.w3.org/2000/svg"
 width="289.000000pt" height="204.000000pt" viewBox="0 0 289.000000 204.000000"
 preserveAspectRatio="xMidYMid meet">
<metadata>
Created by potrace 1.16, written by Peter Selinger 2001-2019
</metadata>
<g transform="translate(0.000000,204.000000) scale(0.100000,-0.100000)"
fill="#000000" stroke="none">
<path d="M1285 1990 c-44 -10 -102 -26 -130 -36 -125 -44 -298 -157 -386 -251
-87 -93 -178 -247 -215 -365 l-18 -58 -193 0 c-180 0 -194 -1 -213 -20 -25
-25 -26 -62 -2 -84 17 -15 51 -16 333 -14 l313 3 9 35 c16 61 50 143 83 200
45 77 161 199 228 239 412 247 930 61 1073 -386 27 -85 40 -221 29 -296 l-7
-47 -560 0 c-470 0 -560 -2 -565 -14 -9 -22 40 -108 96 -169 61 -67 139 -109
247 -133 65 -14 86 -15 145 -4 98 17 181 62 254 137 l61 63 446 0 c494 0 481
-2 475 64 -5 47 -33 56 -190 56 l-138 0 0 109 c0 186 -43 343 -146 529 -50 91
-222 260 -329 324 -203 121 -479 168 -700 118z"/>
<path d="M1386 1469 c-73 -17 -166 -70 -220 -124 -46 -46 -106 -144 -106 -173
0 -17 218 -24 531 -17 350 9 329 2 283 93 -30 60 -123 150 -188 182 -97 46
-207 61 -300 39z"/>
<path d="M150 903 c-40 -14 -53 -69 -22 -96 16 -15 46 -17 213 -17 l195 0 18
-57 c103 -329 392 -586 738 -657 97 -20 290 -21 381 -1 193 41 368 134 505
271 l75 74 252 0 c231 0 253 1 268 18 22 24 21 55 -1 75 -17 15 -59 17 -394
17 l-376 0 -59 -50 c-68 -59 -191 -122 -283 -146 -87 -23 -262 -23 -350 -1
-150 39 -306 141 -395 259 -51 67 -118 200 -130 258 -4 19 -12 41 -17 48 -8 9
-81 12 -307 11 -163 0 -303 -3 -311 -6z"/>
</g>
</svg>
