<?xml version="1.0" standalone="no"?>
<!DOCTYPE svg PUBLIC "-//W3C//DTD SVG 20010904//EN"
 "http://www.w3.org/TR/2001/REC-SVG-20010904/DTD/svg10.dtd">
<svg version="1.0" xmlns="http://www.w3.org/2000/svg"
 width="240.000000pt" height="118.000000pt" viewBox="0 0 240.000000 118.000000"
 preserveAspectRatio="xMidYMid meet">
<metadata>
Created by potrace 1.16, written by Peter Selinger 2001-2019
</metadata>
<g transform="translate(0.000000,118.000000) scale(0.100000,-0.100000)"
fill="#000000" stroke="none">
<path d="M1212 1155 c-95 -27 -188 -112 -208 -192 -5 -20 -13 -22 -72 -25 -52
-2 -67 -6 -67 -18 0 -12 19 -16 101 -18 l102 -3 6 28 c19 78 101 147 188 159
126 17 248 -91 248 -221 l0 -45 -175 0 c-96 0 -175 -3 -175 -8 0 -16 33 -53
60 -67 57 -29 146 -13 173 32 6 10 44 13 152 13 122 0 145 2 145 15 0 11 -12
15 -49 15 l-48 0 -5 64 c-3 36 -15 85 -27 109 -63 129 -214 199 -349 162z"/>
<path d="M1234 990 c-22 -9 -74 -65 -74 -81 0 -5 57 -9 130 -9 72 0 130 4 130
9 0 16 -42 61 -70 76 -32 16 -83 19 -116 5z"/>
<path d="M860 805 c0 -12 14 -15 65 -15 l66 0 19 -44 c26 -60 84 -122 144
-154 43 -22 64 -27 131 -27 90 0 146 20 207 74 34 29 40 31 118 31 72 0 81 2
78 18 -3 15 -18 17 -115 20 -111 3 -112 3 -157 -30 -58 -40 -142 -50 -211 -24
-51 20 -107 78 -126 130 l-13 36 -103 0 c-85 0 -103 -3 -103 -15z"/>
<path d="M2080 325 c0 -198 -1 -195 84 -195 44 0 46 1 46 30 0 25 -4 30 -25
30 -25 0 -25 1 -25 90 0 83 1 90 20 90 11 0 20 2 20 4 0 2 3 11 6 20 5 12 0
16 -20 16 -23 0 -26 4 -26 33 0 40 -15 57 -52 57 l-28 0 0 -175z"/>
<path d="M420 407 c-68 -34 -93 -149 -47 -218 29 -43 60 -59 120 -59 61 0 113
24 133 61 l15 29 -40 0 c-23 0 -44 -6 -51 -15 -21 -26 -92 -16 -107 14 -6 14
-10 29 -7 33 3 4 50 8 105 8 l99 0 0 36 c0 47 -26 90 -66 109 -39 18 -120 19
-154 2z"/>
<path d="M724 406 c-55 -25 -64 -48 -64 -168 l0 -108 40 0 40 0 0 96 c0 114 8
134 55 134 56 0 65 -18 65 -131 l0 -99 40 0 40 0 0 103 c0 114 6 127 56 127
50 0 64 -28 64 -131 0 -93 3 -99 56 -99 24 0 24 1 24 95 0 120 -15 160 -67
181 -27 12 -53 14 -98 10 -68 -8 -77 -8 -160 -1 -40 3 -71 0 -91 -9z"/>
<path d="M1222 403 c-43 -21 -65 -65 -65 -129 0 -59 22 -103 63 -128 32 -19
121 -22 153 -5 33 17 67 51 67 66 0 18 -61 17 -86 -2 -42 -32 -114 -8 -114 38
0 15 14 17 105 17 l105 0 0 25 c0 43 -27 94 -62 115 -41 25 -119 26 -166 3z"/>
<path d="M1531 404 c-55 -23 -60 -37 -61 -161 l0 -113 40 0 40 0 0 103 c0 114
6 127 55 127 48 0 55 -14 55 -111 0 -98 11 -119 61 -119 l29 0 1 73 c1 39 4
61 6 47 13 -82 59 -120 142 -120 29 0 62 5 74 11 33 17 67 51 67 66 0 18 -61
17 -86 -2 -42 -32 -114 -8 -114 38 0 15 14 17 105 17 l105 0 0 25 c0 78 -61
135 -143 135 -88 0 -146 -45 -148 -117 -1 -22 -3 -19 -14 18 -16 61 -22 69
-61 85 -43 18 -110 17 -153 -2z"/>
</g>
</svg>
